<?xml version="1.0" encoding="UTF-8"?>
<svg width="191px" height="31px" viewBox="0 0 191 31" version="1.1" xmlns="http://www.w3.org/2000/svg" xmlns:xlink="http://www.w3.org/1999/xlink">
    <!-- Generator: Sketch 46.2 (44496) - http://www.bohemiancoding.com/sketch -->
    <title>stacksloth-logo</title>
    <desc>Created with Sketch.</desc>
    <defs></defs>
    <g id="Page-1" stroke="none" stroke-width="1" fill="none" fill-rule="evenodd">
        <g id="stacksloth-logo" fill="#448AFF">
            <path d="M6.5,20.52 L0.42,20.52 C0.3933332,22.2800088 0.71333,23.7999936 1.38,25.08 C2.04667,26.3600064 2.946661,27.4133292 4.08,28.24 C5.213339,29.0666708 6.5199926,29.6733314 8,30.06 C9.4800074,30.4466686 11.0066588,30.64 12.58,30.64 C14.5266764,30.64 16.2399926,30.4133356 17.72,29.96 C19.2000074,29.5066644 20.439995,28.8733374 21.44,28.06 C22.440005,27.2466626 23.1933308,26.2800056 23.7,25.16 C24.2066692,24.0399944 24.46,22.8266732 24.46,21.52 C24.46,19.919992 24.1200034,18.6066718 23.44,17.58 C22.7599966,16.5533282 21.953338,15.7333364 21.02,15.12 C20.086662,14.5066636 19.1466714,14.0600014 18.2,13.78 C17.2533286,13.4999986 16.513336,13.3066672 15.98,13.2 C14.1933244,12.7466644 12.7466722,12.3733348 11.64,12.08 C10.5333278,11.7866652 9.6666698,11.4933348 9.04,11.2 C8.4133302,10.9066652 7.9933344,10.5866684 7.78,10.24 C7.5666656,9.8933316 7.46,9.4400028 7.46,8.88 C7.46,8.2666636 7.593332,7.760002 7.86,7.36 C8.126668,6.959998 8.4666646,6.626668 8.88,6.36 C9.2933354,6.093332 9.7533308,5.9066672 10.26,5.8 C10.7666692,5.6933328 11.2733308,5.64 11.78,5.64 C12.5533372,5.64 13.2666634,5.706666 13.92,5.84 C14.5733366,5.973334 15.1533308,6.1999984 15.66,6.52 C16.1666692,6.8400016 16.5733318,7.2799972 16.88,7.84 C17.1866682,8.4000028 17.3666664,9.1066624 17.42,9.96 L23.5,9.96 C23.5,8.3066584 23.1866698,6.9000058 22.56,5.74 C21.9333302,4.5799942 21.086672,3.6266704 20.02,2.88 C18.953328,2.1333296 17.7333402,1.593335 16.36,1.26 C14.9866598,0.926665 13.5533408,0.76 12.06,0.76 C10.7799936,0.76 9.5000064,0.9333316 8.22,1.28 C6.9399936,1.6266684 5.7933384,2.1599964 4.78,2.88 C3.7666616,3.6000036 2.9466698,4.4999946 2.32,5.58 C1.6933302,6.6600054 1.38,7.933326 1.38,9.4 C1.38,10.7066732 1.6266642,11.8199954 2.12,12.74 C2.6133358,13.6600046 3.259996,14.4266636 4.06,15.04 C4.860004,15.6533364 5.7666616,16.1533314 6.78,16.54 C7.7933384,16.9266686 8.833328,17.253332 9.9,17.52 C10.9400052,17.8133348 11.9666616,18.0799988 12.98,18.32 C13.9933384,18.5600012 14.899996,18.8399984 15.7,19.16 C16.500004,19.4800016 17.1466642,19.8799976 17.64,20.36 C18.1333358,20.8400024 18.38,21.4666628 18.38,22.24 C18.38,22.9600036 18.1933352,23.553331 17.82,24.02 C17.4466648,24.486669 16.9800028,24.853332 16.42,25.12 C15.8599972,25.386668 15.2600032,25.5666662 14.62,25.66 C13.9799968,25.7533338 13.3800028,25.8 12.82,25.8 C11.9933292,25.8 11.1933372,25.700001 10.42,25.5 C9.6466628,25.299999 8.9733362,24.9933354 8.4,24.58 C7.8266638,24.1666646 7.3666684,23.62667 7.02,22.96 C6.6733316,22.29333 6.5,21.4800048 6.5,20.52 Z M34.78,9.32 L34.78,3.12 L29.1,3.12 L29.1,9.32 L25.66,9.32 L25.66,13.12 L29.1,13.12 L29.1,25.32 C29.1,26.3600052 29.2733316,27.1999968 29.62,27.84 C29.9666684,28.4800032 30.439997,28.9733316 31.04,29.32 C31.640003,29.6666684 32.3333294,29.8999994 33.12,30.02 C33.9066706,30.1400006 34.7399956,30.2 35.62,30.2 C36.1800028,30.2 36.7533304,30.1866668 37.34,30.16 C37.9266696,30.1333332 38.4599976,30.0800004 38.94,30 L38.94,25.6 C38.673332,25.6533336 38.3933348,25.6933332 38.1,25.72 C37.8066652,25.7466668 37.5000016,25.76 37.18,25.76 C36.2199952,25.76 35.5800016,25.6000016 35.26,25.28 C34.9399984,24.9599984 34.78,24.3200048 34.78,23.36 L34.78,13.12 L38.94,13.12 L38.94,9.32 L34.78,9.32 Z M41.42,15.68 C41.5000004,14.34666 41.8333304,13.2400044 42.42,12.36 C43.0066696,11.4799956 43.7533288,10.773336 44.66,10.24 C45.5666712,9.706664 46.586661,9.3266678 47.72,9.1 C48.853339,8.8733322 49.9933276,8.76 51.14,8.76 C52.1800052,8.76 53.233328,8.8333326 54.3,8.98 C55.366672,9.1266674 56.3399956,9.4133312 57.22,9.84 C58.1000044,10.2666688 58.8199972,10.8599962 59.38,11.62 C59.9400028,12.3800038 60.22,13.3866604 60.22,14.64 L60.22,25.4 C60.22,26.333338 60.2733328,27.2266624 60.38,28.08 C60.4866672,28.9333376 60.673332,29.5733312 60.94,30 L55.18,30 C55.0733328,29.6799984 54.986667,29.353335 54.92,29.02 C54.853333,28.686665 54.8066668,28.3466684 54.78,28 C53.8733288,28.933338 52.8066728,29.5866648 51.58,29.96 C50.3533272,30.3333352 49.1000064,30.52 47.82,30.52 C46.8333284,30.52 45.9133376,30.4000012 45.06,30.16 C44.2066624,29.9199988 43.4600032,29.5466692 42.82,29.04 C42.1799968,28.5333308 41.6800018,27.8933372 41.32,27.12 C40.9599982,26.3466628 40.78,25.426672 40.78,24.36 C40.78,23.1866608 40.9866646,22.2200038 41.4,21.46 C41.8133354,20.6999962 42.3466634,20.0933356 43,19.64 C43.6533366,19.1866644 44.3999958,18.8466678 45.24,18.62 C46.0800042,18.3933322 46.9266624,18.213334 47.78,18.08 C48.6333376,17.946666 49.4733292,17.8400004 50.3,17.76 C51.1266708,17.6799996 51.8599968,17.5600008 52.5,17.4 C53.1400032,17.2399992 53.6466648,17.0066682 54.02,16.7 C54.3933352,16.3933318 54.5666668,15.9466696 54.54,15.36 C54.54,14.7466636 54.440001,14.2600018 54.24,13.9 C54.039999,13.5399982 53.773335,13.260001 53.44,13.06 C53.106665,12.859999 52.7200022,12.726667 52.28,12.66 C51.8399978,12.593333 51.3666692,12.56 50.86,12.56 C49.7399944,12.56 48.8600032,12.7999976 48.22,13.28 C47.5799968,13.7600024 47.2066672,14.5599944 47.1,15.68 L41.42,15.68 Z M54.54,19.88 C54.2999988,20.0933344 54.0000018,20.2599994 53.64,20.38 C53.2799982,20.5000006 52.8933354,20.5999996 52.48,20.68 C52.0666646,20.7600004 51.6333356,20.8266664 51.18,20.88 C50.7266644,20.9333336 50.2733356,20.9999996 49.82,21.08 C49.3933312,21.1600004 48.9733354,21.266666 48.56,21.4 C48.1466646,21.533334 47.7866682,21.7133322 47.48,21.94 C47.1733318,22.1666678 46.9266676,22.4533316 46.74,22.8 C46.5533324,23.1466684 46.46,23.586664 46.46,24.12 C46.46,24.6266692 46.5533324,25.0533316 46.74,25.4 C46.9266676,25.7466684 47.1799984,26.019999 47.5,26.22 C47.8200016,26.420001 48.1933312,26.5599996 48.62,26.64 C49.0466688,26.7200004 49.4866644,26.76 49.94,26.76 C51.0600056,26.76 51.9266636,26.5733352 52.54,26.2 C53.1533364,25.8266648 53.6066652,25.3800026 53.9,24.86 C54.1933348,24.3399974 54.373333,23.813336 54.44,23.28 C54.506667,22.746664 54.54,22.3200016 54.54,22 L54.54,19.88 Z M78.7,16.6 L84.26,16.6 C84.1799996,15.26666 83.8600028,14.1133382 83.3,13.14 C82.7399972,12.1666618 82.0133378,11.3533366 81.12,10.7 C80.2266622,10.0466634 79.213339,9.5600016 78.08,9.24 C76.946661,8.9199984 75.7666728,8.76 74.54,8.76 C72.8599916,8.76 71.3666732,9.0399972 70.06,9.6 C68.7533268,10.1600028 67.6466712,10.939995 66.74,11.94 C65.8333288,12.940005 65.146669,14.1266598 64.68,15.5 C64.213331,16.8733402 63.98,18.359992 63.98,19.96 C63.98,21.5066744 64.2333308,22.9266602 64.74,24.22 C65.2466692,25.5133398 65.9533288,26.626662 66.86,27.56 C67.7666712,28.493338 68.8666602,29.2199974 70.16,29.74 C71.4533398,30.2600026 72.8733256,30.52 74.42,30.52 C77.1666804,30.52 79.4199912,29.8000072 81.18,28.36 C82.9400088,26.9199928 84.0066648,24.8266804 84.38,22.08 L78.9,22.08 C78.7133324,23.3600064 78.253337,24.3799962 77.52,25.14 C76.786663,25.9000038 75.7400068,26.28 74.38,26.28 C73.4999956,26.28 72.7533364,26.080002 72.14,25.68 C71.5266636,25.279998 71.0400018,24.7666698 70.68,24.14 C70.3199982,23.5133302 70.0600008,22.8133372 69.9,22.04 C69.7399992,21.2666628 69.66,20.5066704 69.66,19.76 C69.66,18.9866628 69.7399992,18.2066706 69.9,17.42 C70.0600008,16.6333294 70.3333314,15.9133366 70.72,15.26 C71.1066686,14.6066634 71.6066636,14.0733354 72.22,13.66 C72.8333364,13.2466646 73.5933288,13.04 74.5,13.04 C76.9266788,13.04 78.3266648,14.2266548 78.7,16.6 Z M88.1,1.44 L88.1,30 L93.78,30 L93.78,22.88 L95.98,20.76 L101.66,30 L108.54,30 L99.86,16.92 L107.66,9.32 L100.94,9.32 L93.78,16.76 L93.78,1.44 L88.1,1.44 Z" id="Stack"></path>
            <path d="M129.54,9.6 C129.486666,8.3733272 129.226669,7.3066712 128.76,6.4 C128.293331,5.4933288 127.660004,4.7333364 126.86,4.12 C126.059996,3.5066636 125.106672,3.0466682 124,2.74 C122.893328,2.4333318 121.686673,2.28 120.38,2.28 C119.579996,2.28 118.720005,2.3733324 117.8,2.56 C116.879995,2.7466676 116.026671,3.073331 115.24,3.54 C114.453329,4.006669 113.806669,4.6333294 113.3,5.42 C112.793331,6.2066706 112.54,7.1866608 112.54,8.36 C112.54,9.5066724 112.819997,10.4399964 113.38,11.16 C113.940003,11.8800036 114.673329,12.4599978 115.58,12.9 C116.486671,13.3400022 117.526661,13.693332 118.7,13.96 C119.873339,14.226668 121.059994,14.4799988 122.26,14.72 C123.486673,14.9600012 124.679994,15.246665 125.84,15.58 C127.000006,15.913335 128.039995,16.3666638 128.96,16.94 C129.880005,17.5133362 130.619997,18.2599954 131.18,19.18 C131.740003,20.1000046 132.02,21.2533264 132.02,22.64 C132.02,24.1333408 131.700003,25.3866616 131.06,26.4 C130.419997,27.4133384 129.613338,28.2399968 128.64,28.88 C127.666662,29.5200032 126.586673,29.9799986 125.4,30.26 C124.213327,30.5400014 123.073339,30.68 121.98,30.68 C120.299992,30.68 118.726674,30.5000018 117.26,30.14 C115.793326,29.7799982 114.513339,29.1933374 113.42,28.38 C112.326661,27.5666626 111.46667,26.5200064 110.84,25.24 C110.21333,23.9599936 109.913333,22.4000092 109.94,20.56 L111.7,20.56 C111.62,22.1333412 111.846664,23.4599946 112.38,24.54 C112.913336,25.6200054 113.653329,26.5066632 114.6,27.2 C115.546671,27.8933368 116.659994,28.3933318 117.94,28.7 C119.220006,29.0066682 120.56666,29.16 121.98,29.16 C122.833338,29.16 123.746662,29.0533344 124.72,28.84 C125.693338,28.6266656 126.586663,28.2666692 127.4,27.76 C128.213337,27.2533308 128.893331,26.5866708 129.44,25.76 C129.986669,24.9333292 130.26,23.8933396 130.26,22.64 C130.26,21.439994 129.980003,20.4600038 129.42,19.7 C128.859997,18.9399962 128.120005,18.326669 127.2,17.86 C126.279995,17.393331 125.240006,17.0200014 124.08,16.74 C122.919994,16.4599986 121.726673,16.2000012 120.5,15.96 C119.299994,15.7199988 118.113339,15.4400016 116.94,15.12 C115.766661,14.7999984 114.726671,14.3666694 113.82,13.82 C112.913329,13.2733306 112.180003,12.566671 111.62,11.7 C111.059997,10.833329 110.78,9.7200068 110.78,8.36 C110.78,6.9999932 111.066664,5.8333382 111.64,4.86 C112.213336,3.8866618 112.959995,3.100003 113.88,2.5 C114.800005,1.899997 115.833328,1.4600014 116.98,1.18 C118.126672,0.8999986 119.259994,0.76 120.38,0.76 C121.873341,0.76 123.26666,0.926665 124.56,1.26 C125.85334,1.593335 126.986662,2.1133298 127.96,2.82 C128.933338,3.5266702 129.71333,4.4399944 130.3,5.56 C130.88667,6.6800056 131.22,8.0266588 131.3,9.6 L129.54,9.6 Z M137.7,1.44 L137.7,30 L136.18,30 L136.18,1.44 L137.7,1.44 Z M141.58,19.72 C141.58,18.253326 141.786665,16.8733398 142.2,15.58 C142.613335,14.2866602 143.219996,13.1466716 144.02,12.16 C144.820004,11.1733284 145.806661,10.3933362 146.98,9.82 C148.153339,9.2466638 149.499992,8.96 151.02,8.96 C152.540008,8.96 153.886661,9.2466638 155.06,9.82 C156.233339,10.3933362 157.219996,11.1733284 158.02,12.16 C158.820004,13.1466716 159.426665,14.2866602 159.84,15.58 C160.253335,16.8733398 160.46,18.253326 160.46,19.72 C160.46,21.186674 160.253335,22.5733268 159.84,23.88 C159.426665,25.1866732 158.820004,26.3266618 158.02,27.3 C157.219996,28.2733382 156.233339,29.0466638 155.06,29.62 C153.886661,30.1933362 152.540008,30.48 151.02,30.48 C149.499992,30.48 148.153339,30.1933362 146.98,29.62 C145.806661,29.0466638 144.820004,28.2733382 144.02,27.3 C143.219996,26.3266618 142.613335,25.1866732 142.2,23.88 C141.786665,22.5733268 141.58,21.186674 141.58,19.72 Z M143.1,19.72 C143.1,20.9466728 143.273332,22.126661 143.62,23.26 C143.966668,24.393339 144.47333,25.3999956 145.14,26.28 C145.80667,27.1600044 146.633328,27.8599974 147.62,28.38 C148.606672,28.9000026 149.739994,29.16 151.02,29.16 C152.300006,29.16 153.433328,28.9000026 154.42,28.38 C155.406672,27.8599974 156.23333,27.1600044 156.9,26.28 C157.56667,25.3999956 158.073332,24.393339 158.42,23.26 C158.766668,22.126661 158.94,20.9466728 158.94,19.72 C158.94,18.4933272 158.766668,17.313339 158.42,16.18 C158.073332,15.046661 157.56667,14.0400044 156.9,13.16 C156.23333,12.2799956 155.406672,11.5800026 154.42,11.06 C153.433328,10.5399974 152.300006,10.28 151.02,10.28 C149.739994,10.28 148.606672,10.5399974 147.62,11.06 C146.633328,11.5800026 145.80667,12.2799956 145.14,13.16 C144.47333,14.0400044 143.966668,15.046661 143.62,16.18 C143.273332,17.313339 143.1,18.4933272 143.1,19.72 Z M171.58,10.76 L167.1,10.76 L167.1,25.12 C167.1,25.9466708 167.193332,26.5999976 167.38,27.08 C167.566668,27.5600024 167.853331,27.9266654 168.24,28.18 C168.626669,28.4333346 169.093331,28.5866664 169.64,28.64 C170.186669,28.6933336 170.819996,28.7066668 171.54,28.68 L171.54,30 C170.766663,30.0533336 170.013337,30.046667 169.28,29.98 C168.546663,29.913333 167.900003,29.713335 167.34,29.38 C166.779997,29.046665 166.333335,28.54667 166,27.88 C165.666665,27.21333 165.526666,26.2933392 165.58,25.12 L165.58,10.76 L161.78,10.76 L161.78,9.44 L165.58,9.44 L165.58,3.04 L167.1,3.04 L167.1,9.44 L171.58,9.44 L171.58,10.76 Z M175.9,1.44 L175.9,13.84 L175.98,13.84 C176.246668,13.0666628 176.626664,12.380003 177.12,11.78 C177.613336,11.179997 178.186663,10.6666688 178.84,10.24 C179.493337,9.8133312 180.206663,9.4933344 180.98,9.28 C181.753337,9.0666656 182.539996,8.96 183.34,8.96 C184.540006,8.96 185.559996,9.1066652 186.4,9.4 C187.240004,9.6933348 187.926664,10.0799976 188.46,10.56 C188.993336,11.0400024 189.413332,11.579997 189.72,12.18 C190.026668,12.780003 190.246666,13.3866636 190.38,14 C190.513334,14.6133364 190.593333,15.2066638 190.62,15.78 C190.646667,16.3533362 190.66,16.8533312 190.66,17.28 L190.66,30 L189.14,30 L189.14,17 C189.14,16.4933308 189.1,15.8533372 189.02,15.08 C188.94,14.3066628 188.706669,13.5666702 188.32,12.86 C187.933331,12.1533298 187.346671,11.5466692 186.56,11.04 C185.773329,10.5333308 184.686674,10.28 183.3,10.28 C182.126661,10.28 181.086671,10.4933312 180.18,10.92 C179.273329,11.3466688 178.500003,11.9399962 177.86,12.7 C177.219997,13.4600038 176.733335,14.3666614 176.4,15.42 C176.066665,16.4733386 175.9,17.6266604 175.9,18.88 L175.9,30 L174.38,30 L174.38,1.44 L175.9,1.44 Z" id="Sloth"></path>
        </g>
    </g>
</svg>